# xmcd CD database file
#
# Track frame offsets:
#	150
#	11598
#	23726
#	35212
#	47611
#	58406
#	71817
#	83421
#	94511
#	106769
#	120917
#	133610
#	145637
#	157751
#	171170
#	183512
#	196266
#	207101
#	219816
#	231749
#	244757
#	256168
#	268141
#	278374
#	290636
#	301970
#	313935
#	326257
#
# Disc length: 4480 seconds
#
# Revision: 0
# Processed by: cddbd v1.5.1PL0 Copyright (c) Steve Scherf et al.
# Submitted via: CDex 1.51
#
DISCID=85117e1c
DTITLE=Various Artist - Swinging Hollywood Hillbilly Cowboys: #1 The West Coast Indies
DYEAR=2004
DGENRE=Country
TTITLE0=Arkie Shibley - Hot Rod Race
TTITLE1=Betsy Gay - Hound Dog
TTITLE2=Billy Hughes Buckaroos - Take Your Hands Off It
TTITLE3=Casey Simmons - Juke Box Boogie
TTITLE4=Jimmy Walker - High Geared Daddy
TTITLE5=Deuce Spriggins - Who Broke The Lock On The Henhouse Door
TTITLE6=Dusty Taylor - Ranger Boogie
TTITLE7=George Stogner - Hard Top Race
TTITLE8=Jimmy Walker - Detour
TTITLE9=Jimmy Bryant - Jelly Beans Daddy
TTITLE10=Leodie Jackson - Steelin' The Blues
TTITLE11=Les Anderson - And I Shook
TTITLE12=Luke Wills - Four Or Five Times
TTITLE13=Porky Freeman - Boogie Woogie Boy
TTITLE14=Red Murrell - Get That Chip Off Your Shoulder
TTITLE15=Red Murrell - Git Fiddle Boogie
TTITLE16=T. Texas Tyler - Divorce Me C.O.D.
TTITLE17=Hominy Grits - Tem Martin
TTITLE18=Tin Ear Tanner - I Used To Work In Chicago
TTITLE19=Jimmie Dolan - Tennessee Baby
TTITLE20=Truman Duff - Rougue River Boogie
TTITLE21=Zeke Clements - Oklahoma Blues
TTITLE22=Maddox Bros and Rose - Sally Let Your Bangs Hang Down
TTITLE23=Tommy Duncan - Who Drank The Beer (While I Was In The Rear)
TTITLE24=Brad King - You Ain't Got My Number Anymore
TTITLE25=Cliffie Stone - Knock On Wood
TTITLE26=Merl Lindsay - Shimmy Shakin' Daddy
TTITLE27=Maddox Bros and Rose - I Wish I Was A Single Girl Again
EXTD=YEAR: 2004
EXTT0=
EXTT1=
EXTT2=
EXTT3=
EXTT4=
EXTT5=
EXTT6=
EXTT7=
EXTT8=
EXTT9=
EXTT10=
EXTT11=
EXTT12=
EXTT13=
EXTT14=
EXTT15=
EXTT16=
EXTT17=
EXTT18=
EXTT19=
EXTT20=
EXTT21=
EXTT22=
EXTT23=
EXTT24=
EXTT25=
EXTT26=
EXTT27=
PLAYORDER=
